<svg xmlns="http://www.w3.org/2000/svg" width="128" height="128" preserveAspectRatio="xMidYMid meet" version="1.0" viewBox="0 0 96 96"><g fill="#000" stroke="none"><path d="M29 653 c13 -45 39 -91 58 -103 15 -9 11 -10 -19 -6 -21 2 -38 1 -38 -4 0 -5 15 -25 34 -44 l33 -36 -26 -1 -26 0 24 -17 c13 -9 38 -22 55 -29 l31 -11 -38 -1 -38 -1 15 -29 c28 -53 74 -91 112 -91 38 0 40 -4 19 -40 -21 -37 -19 -40 30 -40 44 0 44 0 35 26 -6 14 -10 43 -10 64 0 30 -7 45 -34 72 -22 22 -37 49 -42 74 -3 21 -15 47 -25 57 -11 10 -19 32 -19 51 0 29 -5 36 -32 45 -17 6 -48 30 -69 52 -37 41 -38 41 -30 12z" transform="translate(0.000000,96.000000) scale(0.100000,-0.100000)"/><path d="M906 646 c-14 -19 -44 -42 -66 -52 -35 -16 -40 -22 -40 -51 0 -18 -8 -40 -19 -50 -10 -10 -22 -36 -25 -57 -5 -25 -20 -52 -40 -72 -29 -29 -34 -42 -39 -99 l-6 -65 39 0 c44 0 46 3 25 40 -21 36 -19 40 19 40 38 0 84 38 112 91 l15 29 -38 1 -38 1 31 11 c17 7 42 20 55 29 l24 17 -26 0 -26 1 33 36 c19 19 34 39 34 44 0 5 -17 6 -37 4 -31 -4 -35 -3 -20 6 19 12 45 58 58 102 10 36 7 35 -25 -6z" transform="translate(0.000000,96.000000) scale(0.100000,-0.100000)"/></g></svg>